<svg id="visual" viewBox="0 0 900 150" width="900" height="150" xmlns="http://www.w3.org/2000/svg" xmlns:xlink="http://www.w3.org/1999/xlink" version="1.1"><rect x="0" y="0" width="900" height="150" fill="#dffffa"></rect><path d="M0 53L16.7 52.3C33.3 51.7 66.7 50.3 100 56C133.3 61.7 166.7 74.3 200 80C233.3 85.7 266.7 84.3 300 86C333.3 87.7 366.7 92.3 400 87.5C433.3 82.7 466.7 68.3 500 61.5C533.3 54.7 566.7 55.3 600 59.2C633.3 63 666.7 70 700 69.3C733.3 68.7 766.7 60.3 800 58.5C833.3 56.7 866.7 61.3 883.3 63.7L900 66L900 151L883.3 151C866.7 151 833.3 151 800 151C766.7 151 733.3 151 700 151C666.7 151 633.3 151 600 151C566.7 151 533.3 151 500 151C466.7 151 433.3 151 400 151C366.7 151 333.3 151 300 151C266.7 151 233.3 151 200 151C166.7 151 133.3 151 100 151C66.7 151 33.3 151 16.7 151L0 151Z" fill="#b7ebe3"></path><path d="M0 73L16.7 74C33.3 75 66.7 77 100 76.8C133.3 76.7 166.7 74.3 200 74.5C233.3 74.7 266.7 77.3 300 76C333.3 74.7 366.7 69.3 400 71C433.3 72.7 466.7 81.3 500 82.8C533.3 84.3 566.7 78.7 600 75.7C633.3 72.7 666.7 72.3 700 74.2C733.3 76 766.7 80 800 83.8C833.3 87.7 866.7 91.3 883.3 93.2L900 95L900 151L883.3 151C866.7 151 833.3 151 800 151C766.7 151 733.3 151 700 151C666.7 151 633.3 151 600 151C566.7 151 533.3 151 500 151C466.7 151 433.3 151 400 151C366.7 151 333.3 151 300 151C266.7 151 233.3 151 200 151C166.7 151 133.3 151 100 151C66.7 151 33.3 151 16.7 151L0 151Z" fill="#97d8ce"></path><path d="M0 104L16.7 101.7C33.3 99.3 66.7 94.7 100 96.5C133.3 98.3 166.7 106.7 200 110.7C233.3 114.7 266.7 114.3 300 110C333.3 105.7 366.7 97.3 400 97C433.3 96.7 466.7 104.3 500 105C533.3 105.7 566.7 99.3 600 97C633.3 94.7 666.7 96.3 700 98.2C733.3 100 766.7 102 800 101.5C833.3 101 866.7 98 883.3 96.5L900 95L900 151L883.3 151C866.7 151 833.3 151 800 151C766.7 151 733.3 151 700 151C666.7 151 633.3 151 600 151C566.7 151 533.3 151 500 151C466.7 151 433.3 151 400 151C366.7 151 333.3 151 300 151C266.7 151 233.3 151 200 151C166.7 151 133.3 151 100 151C66.7 151 33.3 151 16.7 151L0 151Z" fill="#76c6b8"></path><path d="M0 116L16.7 117.3C33.3 118.7 66.7 121.3 100 120.2C133.3 119 166.7 114 200 109.3C233.3 104.7 266.7 100.3 300 102.5C333.3 104.7 366.7 113.3 400 115.3C433.3 117.3 466.7 112.7 500 110.8C533.3 109 566.7 110 600 111.3C633.3 112.7 666.7 114.3 700 112C733.3 109.7 766.7 103.3 800 102.7C833.3 102 866.7 107 883.3 109.5L900 112L900 151L883.3 151C866.7 151 833.3 151 800 151C766.7 151 733.3 151 700 151C666.7 151 633.3 151 600 151C566.7 151 533.3 151 500 151C466.7 151 433.3 151 400 151C366.7 151 333.3 151 300 151C266.7 151 233.3 151 200 151C166.7 151 133.3 151 100 151C66.7 151 33.3 151 16.7 151L0 151Z" fill="#53b3a3"></path><path d="M0 127L16.7 127.3C33.3 127.7 66.7 128.3 100 127.7C133.3 127 166.7 125 200 125C233.3 125 266.7 127 300 128.7C333.3 130.3 366.7 131.7 400 129.7C433.3 127.7 466.7 122.3 500 119.2C533.3 116 566.7 115 600 115.5C633.3 116 666.7 118 700 118.3C733.3 118.7 766.7 117.3 800 118.5C833.3 119.7 866.7 123.3 883.3 125.2L900 127L900 151L883.3 151C866.7 151 833.3 151 800 151C766.7 151 733.3 151 700 151C666.7 151 633.3 151 600 151C566.7 151 533.3 151 500 151C466.7 151 433.3 151 400 151C366.7 151 333.3 151 300 151C266.7 151 233.3 151 200 151C166.7 151 133.3 151 100 151C66.7 151 33.3 151 16.7 151L0 151Z" fill="#25a18e"></path></svg>