<svg id="visual" viewBox="0 0 900 300" width="900" height="300" xmlns="http://www.w3.org/2000/svg" xmlns:xlink="http://www.w3.org/1999/xlink" version="1.1"><rect x="0" y="0" width="900" height="300" fill="#274060"></rect><path d="M0 100L16.7 103.8C33.3 107.7 66.7 115.3 100 124.8C133.3 134.3 166.7 145.7 200 147.8C233.3 150 266.7 143 300 138.8C333.3 134.7 366.7 133.3 400 126.3C433.3 119.3 466.7 106.7 500 99C533.3 91.3 566.7 88.7 600 95.5C633.3 102.3 666.7 118.7 700 119C733.3 119.3 766.7 103.7 800 108.5C833.3 113.3 866.7 138.7 883.3 151.3L900 164L900 301L883.3 301C866.7 301 833.3 301 800 301C766.7 301 733.3 301 700 301C666.7 301 633.3 301 600 301C566.7 301 533.3 301 500 301C466.7 301 433.3 301 400 301C366.7 301 333.3 301 300 301C266.7 301 233.3 301 200 301C166.7 301 133.3 301 100 301C66.7 301 33.3 301 16.7 301L0 301Z" fill="#1d3360"></path><path d="M0 140L16.7 146.8C33.3 153.7 66.7 167.3 100 177.5C133.3 187.7 166.7 194.3 200 188.7C233.3 183 266.7 165 300 166.2C333.3 167.3 366.7 187.7 400 193.5C433.3 199.3 466.7 190.7 500 187.5C533.3 184.3 566.7 186.7 600 178.3C633.3 170 666.7 151 700 151.2C733.3 151.3 766.7 170.7 800 178.5C833.3 186.3 866.7 182.7 883.3 180.8L900 179L900 301L883.3 301C866.7 301 833.3 301 800 301C766.7 301 733.3 301 700 301C666.7 301 633.3 301 600 301C566.7 301 533.3 301 500 301C466.7 301 433.3 301 400 301C366.7 301 333.3 301 300 301C266.7 301 233.3 301 200 301C166.7 301 133.3 301 100 301C66.7 301 33.3 301 16.7 301L0 301Z" fill="#202a5b"></path><path d="M0 157L16.7 157C33.3 157 66.7 157 100 158.5C133.3 160 166.7 163 200 169.5C233.3 176 266.7 186 300 190.2C333.3 194.3 366.7 192.7 400 198C433.3 203.3 466.7 215.7 500 216.7C533.3 217.7 566.7 207.3 600 206.2C633.3 205 666.7 213 700 216C733.3 219 766.7 217 800 214.5C833.3 212 866.7 209 883.3 207.5L900 206L900 301L883.3 301C866.7 301 833.3 301 800 301C766.7 301 733.3 301 700 301C666.7 301 633.3 301 600 301C566.7 301 533.3 301 500 301C466.7 301 433.3 301 400 301C366.7 301 333.3 301 300 301C266.7 301 233.3 301 200 301C166.7 301 133.3 301 100 301C66.7 301 33.3 301 16.7 301L0 301Z" fill="#242055"></path><path d="M0 215L16.7 214C33.3 213 66.7 211 100 209.2C133.3 207.3 166.7 205.7 200 205.3C233.3 205 266.7 206 300 208.7C333.3 211.3 366.7 215.7 400 220.5C433.3 225.3 466.7 230.7 500 234C533.3 237.3 566.7 238.7 600 233.8C633.3 229 666.7 218 700 210.3C733.3 202.7 766.7 198.3 800 199.2C833.3 200 866.7 206 883.3 209L900 212L900 301L883.3 301C866.7 301 833.3 301 800 301C766.7 301 733.3 301 700 301C666.7 301 633.3 301 600 301C566.7 301 533.3 301 500 301C466.7 301 433.3 301 400 301C366.7 301 333.3 301 300 301C266.7 301 233.3 301 200 301C166.7 301 133.3 301 100 301C66.7 301 33.3 301 16.7 301L0 301Z" fill="#28154d"></path><path d="M0 234L16.7 237.5C33.3 241 66.7 248 100 248.5C133.3 249 166.7 243 200 245.3C233.3 247.7 266.7 258.3 300 258C333.3 257.7 366.7 246.3 400 243C433.3 239.7 466.7 244.3 500 247C533.3 249.7 566.7 250.3 600 252.3C633.3 254.3 666.7 257.7 700 258C733.3 258.3 766.7 255.7 800 254.5C833.3 253.3 866.7 253.7 883.3 253.8L900 254L900 301L883.3 301C866.7 301 833.3 301 800 301C766.7 301 733.3 301 700 301C666.7 301 633.3 301 600 301C566.7 301 533.3 301 500 301C466.7 301 433.3 301 400 301C366.7 301 333.3 301 300 301C266.7 301 233.3 301 200 301C166.7 301 133.3 301 100 301C66.7 301 33.3 301 16.7 301L0 301Z" fill="#2c0744"></path></svg>