<svg id="visual" viewBox="0 0 900 300" width="900" height="300" xmlns="http://www.w3.org/2000/svg" xmlns:xlink="http://www.w3.org/1999/xlink" version="1.1"><rect x="0" y="0" width="900" height="300" fill="#25a18e"></rect><path d="M0 200L30 199.7C60 199.3 120 198.7 180 193.5C240 188.3 300 178.7 360 186.8C420 195 480 221 540 219.5C600 218 660 189 720 180.7C780 172.3 840 184.7 870 190.8L900 197L900 301L870 301C840 301 780 301 720 301C660 301 600 301 540 301C480 301 420 301 360 301C300 301 240 301 180 301C120 301 60 301 30 301L0 301Z" fill="#219180"></path><path d="M0 186L30 196C60 206 120 226 180 233.2C240 240.3 300 234.7 360 230.3C420 226 480 223 540 225.8C600 228.7 660 237.3 720 238.7C780 240 840 234 870 231L900 228L900 301L870 301C840 301 780 301 720 301C660 301 600 301 540 301C480 301 420 301 360 301C300 301 240 301 180 301C120 301 60 301 30 301L0 301Z" fill="#007e85"></path><path d="M0 216L30 223.2C60 230.3 120 244.7 180 245C240 245.3 300 231.7 360 225.2C420 218.7 480 219.3 540 219.8C600 220.3 660 220.7 720 223.2C780 225.7 840 230.3 870 232.7L900 235L900 301L870 301C840 301 780 301 720 301C660 301 600 301 540 301C480 301 420 301 360 301C300 301 240 301 180 301C120 301 60 301 30 301L0 301Z" fill="#006980"></path><path d="M0 237L30 237.2C60 237.3 120 237.7 180 241.5C240 245.3 300 252.7 360 257C420 261.3 480 262.7 540 266.7C600 270.7 660 277.3 720 279.2C780 281 840 278 870 276.5L900 275L900 301L870 301C840 301 780 301 720 301C660 301 600 301 540 301C480 301 420 301 360 301C300 301 240 301 180 301C120 301 60 301 30 301L0 301Z" fill="#195473"></path><path d="M0 255L30 256.5C60 258 120 261 180 260.7C240 260.3 300 256.7 360 261.3C420 266 480 279 540 285.8C600 292.7 660 293.3 720 287.3C780 281.3 840 268.7 870 262.3L900 256L900 301L870 301C840 301 780 301 720 301C660 301 600 301 540 301C480 301 420 301 360 301C300 301 240 301 180 301C120 301 60 301 30 301L0 301Z" fill="#274060"></path></svg>